<?xml version="1.0" standalone="no"?>
<!DOCTYPE svg PUBLIC "-//W3C//DTD SVG 20010904//EN"
 "http://www.w3.org/TR/2001/REC-SVG-20010904/DTD/svg10.dtd">
<svg version="1.0" xmlns="http://www.w3.org/2000/svg"
 width="404.000000pt" height="81.000000pt" viewBox="0 0 404.000000 81.000000"
 preserveAspectRatio="xMidYMid meet">

<g transform="translate(0.000000,81.000000) scale(0.100000,-0.100000)"
fill="#000000" stroke="none">
<path d="M218 603 c-139 -138 -178 -183 -178 -203 0 -20 39 -65 178 -203 l178
-177 194 0 194 0 183 183 c101 100 183 189 183 197 0 8 -82 97 -183 197 l-183
183 -194 0 -194 0 -178 -177z m672 -58 l145 -145 -138 -137 -137 -138 -52 53
-53 52 85 85 85 85 -145 145 -145 145 105 0 105 0 145 -145z m-450 -60 l-85
-85 145 -145 145 -145 -100 0 -100 0 -145 145 -145 145 135 135 135 135 50
-50 50 -50 -85 -85z"/>
<path d="M2100 530 c0 -64 -9 -86 -25 -60 -3 6 -26 10 -50 10 -35 0 -52 -6
-76 -28 -59 -53 -48 -161 21 -197 37 -19 80 -19 108 1 12 8 22 10 22 5 0 -6
11 -11 25 -11 l25 0 0 175 0 175 -25 0 c-24 0 -25 -2 -25 -70z m-29 -118 c25
-21 30 -71 9 -96 -19 -24 -76 -20 -94 6 -22 32 -20 55 9 83 29 30 45 31 76 7z"/>
<path d="M3301 574 c-12 -15 -21 -41 -21 -60 0 -24 -5 -34 -15 -34 -9 0 -15
-9 -15 -25 0 -16 6 -25 15 -25 12 0 15 -17 15 -90 l0 -90 30 0 30 0 0 90 0 90
45 0 45 0 0 -54 c0 -100 34 -143 106 -134 24 2 30 9 32 32 3 24 1 28 -14 22
-9 -3 -27 1 -40 9 -20 13 -24 24 -24 70 l0 55 35 0 c31 0 35 3 35 25 0 22 -4
25 -35 25 -32 0 -35 2 -35 30 0 27 -3 30 -30 30 -27 0 -30 -3 -30 -30 0 -29
-2 -30 -45 -30 -40 0 -45 2 -45 23 0 28 17 47 42 47 13 0 18 8 18 25 0 22 -4
25 -39 25 -31 0 -44 -6 -60 -26z"/>
<path d="M1370 541 c-54 -28 -80 -74 -80 -139 0 -70 28 -117 84 -143 70 -32
136 -22 189 29 l28 26 -23 17 c-21 16 -23 16 -51 -7 -99 -83 -225 51 -139 147
36 41 99 45 137 9 22 -21 28 -22 49 -10 21 11 23 15 13 32 -32 53 -142 74
-207 39z"/>
<path d="M2558 539 c-23 -12 -46 -35 -58 -59 -73 -142 66 -287 213 -222 59 26
75 54 44 75 -21 13 -25 13 -50 -9 -57 -49 -145 -21 -163 51 -24 96 93 170 163
103 27 -26 29 -26 51 -10 21 16 21 18 6 41 -36 51 -139 66 -206 30z"/>
<path d="M1679 465 c-29 -16 -59 -70 -59 -107 0 -65 74 -124 144 -115 84 12
130 102 91 177 -28 55 -117 77 -176 45z m106 -60 c29 -28 31 -51 9 -83 -17
-25 -60 -29 -89 -8 -27 19 -24 74 4 98 31 24 47 23 76 -7z"/>
<path d="M2249 452 c-61 -55 -48 -161 25 -196 42 -20 76 -20 122 -1 31 13 34
17 24 35 -12 23 -20 24 -54 9 -29 -13 -81 2 -90 27 -4 11 11 14 79 14 l85 0 0
30 c0 69 -45 110 -119 110 -30 0 -49 -7 -72 -28z m121 -37 c18 -22 3 -35 -44
-35 -52 0 -61 8 -39 32 19 22 66 24 83 3z"/>
<path d="M2830 365 l0 -115 30 0 30 0 0 63 c0 70 15 101 55 111 18 5 25 13 25
31 0 28 -25 34 -61 15 -13 -7 -19 -7 -19 0 0 5 -13 10 -30 10 l-30 0 0 -115z"/>
<path d="M3038 464 c-31 -16 -36 -35 -13 -54 13 -10 19 -10 33 4 32 28 77 18
84 -19 3 -18 -3 -20 -52 -23 -32 -2 -62 -10 -72 -19 -24 -22 -23 -68 3 -94 17
-17 28 -20 62 -15 23 4 59 6 80 6 l37 0 0 94 c0 90 -1 95 -26 115 -32 25 -96
27 -136 5z m102 -138 c0 -24 -40 -47 -62 -35 -21 11 -24 35 -5 42 27 11 67 7
67 -7z"/>
<path d="M3652 464 c-73 -51 -65 -171 15 -209 39 -19 74 -19 119 0 31 13 34
17 24 35 -8 15 -17 19 -28 15 -48 -18 -69 -16 -98 9 l-29 25 88 1 87 0 0 30
c0 38 -24 86 -49 100 -29 15 -104 12 -129 -6z m108 -49 c18 -22 3 -35 -44 -35
-52 0 -61 8 -39 32 19 22 66 24 83 3z"/>
<path d="M3880 365 l0 -115 30 0 30 0 0 63 c0 70 15 101 55 111 18 5 25 13 25
31 0 28 -25 34 -61 15 -13 -7 -19 -7 -19 0 0 5 -13 10 -30 10 l-30 0 0 -115z"/>
</g>
</svg>
